{
  "accessors": [
    {
      "bufferView": 2,
      "componentType": 5126,
      "count": 426,
      "max": [
        254.6851806640625,
        8.707822799682617,
        254.6852264404297
      ],
      "min": [
        -254.68524169921875,
        -8.707822799682617,
        -254.685302734375
      ],
      "type": "VEC3"
    },
    {
      "bufferView": 2,
      "byteOffset": 5112,
      "componentType": 5126,
      "count": 426,
      "max": [
        1.0,
        1.0,
        1.0
      ],
      "min": [
        -1.0,
        -1.0,
        -1.0
      ],
      "type": "VEC3"
    },
    {
      "bufferView": 3,
      "componentType": 5126,
      "count": 426,
      "max": [
        1.0,
        1.0,
        0.7078258991241455,
        1.0
      ],
      "min": [
        -1.0,
        -1.0,
        -1.3357381476453156e-06,
        1.0
      ],
      "type": "VEC4"
    },
    {
      "bufferView": 1,
      "componentType": 5126,
      "count": 426,
      "max": [
        0.945939838886261,
        0.9944385290145874
      ],
      "min": [
        0.010361939668655396,
        0.01553022488951683
      ],
      "type": "VEC2"
    },
    {
      "bufferView": 0,
      "componentType": 5125,
      "count": 1200,
      "type": "SCALAR"
    }
  ],
  "asset": {
    "extras": {
      "author": "noortjeschuur (https://sketchfab.com/noortjeschuur)",
      "license": "CC-BY-4.0 (http://creativecommons.org/licenses/by/4.0/)",
      "source": "https://sketchfab.com/3d-models/round-platform-64de8f896e3e40e4a1e8a67d01620ac1",
      "title": "round platform"
    },
    "generator": "Sketchfab-13.52.1",
    "version": "2.0"
  },
  "bufferViews": [
    {
      "buffer": 0,
      "byteLength": 4800,
      "name": "floatBufferViews",
      "target": 34963
    },
    {
      "buffer": 0,
      "byteLength": 3408,
      "byteOffset": 4800,
      "byteStride": 8,
      "name": "floatBufferViews",
      "target": 34962
    },
    {
      "buffer": 0,
      "byteLength": 10224,
      "byteOffset": 8208,
      "byteStride": 12,
      "name": "floatBufferViews",
      "target": 34962
    },
    {
      "buffer": 0,
      "byteLength": 6816,
      "byteOffset": 18432,
      "byteStride": 16,
      "name": "floatBufferViews",
      "target": 34962
    }
  ],
  "buffers": [
    {
      "byteLength": 25248,
      "uri": "scene.bin"
    }
  ],
  "images": [
    {
      "uri": "textures/defaultPolygonShader1_baseColor.png"
    },
    {
      "uri": "textures/defaultPolygonShader1_normal.png"
    }
  ],
  "materials": [
    {
      "doubleSided": true,
      "name": "defaultPolygonShader1",
      "normalTexture": {
        "index": 1
      },
      "pbrMetallicRoughness": {
        "baseColorTexture": {
          "index": 0
        },
        "metallicFactor": 0.0,
        "roughnessFactor": 0.6
      }
    }
  ],
  "meshes": [
    {
      "name": "pCylinder1_defaultPolygonShader1_0",
      "primitives": [
        {
          "attributes": {
            "NORMAL": 1,
            "POSITION": 0,
            "TANGENT": 2,
            "TEXCOORD_0": 3
          },
          "indices": 4,
          "material": 0,
          "mode": 4
        }
      ]
    }
  ],
  "nodes": [
    {
      "children": [
        1
      ],
      "matrix": [
        1.0,
        0.0,
        0.0,
        0.0,
        0.0,
        2.220446049250313e-16,
        -1.0,
        0.0,
        0.0,
        1.0,
        2.220446049250313e-16,
        0.0,
        0.0,
        0.0,
        0.0,
        1.0
      ],
      "name": "Sketchfab_model"
    },
    {
      "children": [
        2
      ],
      "matrix": [
        1.0,
        0.0,
        0.0,
        0.0,
        0.0,
        0.0,
        1.0,
        0.0,
        0.0,
        -1.0,
        0.0,
        0.0,
        0.0,
        0.0,
        0.0,
        1.0
      ],
      "name": "b12dcf41eb27485aa690ecd8f7f7c0db.fbx"
    },
    {
      "children": [
        3
      ],
      "name": "RootNode"
    },
    {
      "children": [
        4
      ],
      "matrix": [
        0.009999999776482582,
        0.0,
        0.0,
        0.0,
        0.0,
        0.009999999776482582,
        0.0,
        0.0,
        0.0,
        0.0,
        0.009999999776482582,
        0.0,
        0.0,
        0.0,
        0.0,
        1.0
      ],
      "name": "pCylinder1"
    },
    {
      "mesh": 0,
      "name": "pCylinder1_defaultPolygonShader1_0"
    }
  ],
  "samplers": [
    {
      "magFilter": 9729,
      "minFilter": 9987,
      "wrapS": 10497,
      "wrapT": 10497
    }
  ],
  "scene": 0,
  "scenes": [
    {
      "name": "Sketchfab_Scene",
      "nodes": [
        0
      ]
    }
  ],
  "textures": [
    {
      "sampler": 0,
      "source": 0
    },
    {
      "sampler": 0,
      "source": 1
    }
  ]
}
