{
  "accessors": [
    {
      "bufferView": 2,
      "componentType": 5126,
      "count": 13280,
      "max": [
        0.11420150101184845,
        0.1464264988899231,
        0.131063312292099
      ],
      "min": [
        -0.11420148611068726,
        -0.1464264988899231,
        -0.131063312292099
      ],
      "type": "VEC3"
    },
    {
      "bufferView": 2,
      "byteOffset": 159360,
      "componentType": 5126,
      "count": 13280,
      "max": [
        0.9998272061347961,
        0.9999895691871643,
        0.9999784827232361
      ],
      "min": [
        -0.9998534321784973,
        -0.9788665771484375,
        -0.999763548374176
      ],
      "type": "VEC3"
    },
    {
      "bufferView": 1,
      "componentType": 5126,
      "count": 13280,
      "max": [
        0.9754533171653748,
        0.9999588131904602
      ],
      "min": [
        0.00016312184743583202,
        3.056531568290666e-05
      ],
      "type": "VEC2"
    },
    {
      "bufferView": 1,
      "byteOffset": 106240,
      "componentType": 5126,
      "count": 13280,
      "max": [
        0.9754533171653748,
        0.9999588131904602
      ],
      "min": [
        0.00016312184743583202,
        3.056531568290666e-05
      ],
      "type": "VEC2"
    },
    {
      "bufferView": 1,
      "byteOffset": 212480,
      "componentType": 5126,
      "count": 13280,
      "max": [
        0.9754533171653748,
        0.9999588131904602
      ],
      "min": [
        0.00016312184743583202,
        3.056531568290666e-05
      ],
      "type": "VEC2"
    },
    {
      "bufferView": 0,
      "componentType": 5125,
      "count": 74997,
      "type": "SCALAR"
    }
  ],
  "asset": {
    "extras": {
      "author": "Meteorite (https://sketchfab.com/Meteorite)",
      "license": "CC-BY-NC-SA-4.0 (http://creativecommons.org/licenses/by-nc-sa/4.0/)",
      "source": "https://sketchfab.com/3d-models/meteorite-3ab98cd8068e438ca8af95e0c06c1692",
      "title": "Meteorite"
    },
    "generator": "Sketchfab-13.4.0",
    "version": "2.0"
  },
  "bufferViews": [
    {
      "buffer": 0,
      "byteLength": 299988,
      "name": "floatBufferViews",
      "target": 34963
    },
    {
      "buffer": 0,
      "byteLength": 318720,
      "byteOffset": 299988,
      "byteStride": 8,
      "name": "floatBufferViews",
      "target": 34962
    },
    {
      "buffer": 0,
      "byteLength": 318720,
      "byteOffset": 618708,
      "byteStride": 12,
      "name": "floatBufferViews",
      "target": 34962
    }
  ],
  "buffers": [
    {
      "byteLength": 937428,
      "uri": "f.bin"
    }
  ],
  "extensionsUsed": [
    "KHR_materials_unlit"
  ],
  "images": [
    {
      "uri": "textures/material_0_baseColor.jpeg"
    }
  ],
  "materials": [
    {
      "extensions": {
        "KHR_materials_unlit": {}
      },
      "name": "material_0",
      "pbrMetallicRoughness": {
        "baseColorTexture": {
          "index": 0
        },
        "metallicFactor": 0.0
      }
    }
  ],
  "meshes": [
    {
      "name": "Object_0",
      "primitives": [
        {
          "attributes": {
            "NORMAL": 1,
            "POSITION": 0,
            "TEXCOORD_0": 2,
            "TEXCOORD_1": 3,
            "TEXCOORD_2": 4
          },
          "indices": 5,
          "material": 0,
          "mode": 4
        }
      ]
    }
  ],
  "nodes": [
    {
      "children": [
        1
      ],
      "matrix": [
        1.0,
        0.0,
        0.0,
        0.0,
        0.0,
        2.220446049250313e-16,
        -1.0,
        0.0,
        0.0,
        1.0,
        2.220446049250313e-16,
        0.0,
        0.0,
        0.0,
        0.0,
        1.0
      ],
      "name": "Sketchfab_model"
    },
    {
      "children": [
        2
      ],
      "name": "root"
    },
    {
      "children": [
        3
      ],
      "matrix": [
        1.0,
        0.0,
        0.0,
        0.0,
        0.0,
        2.220446049250313e-16,
        1.0,
        0.0,
        0.0,
        -1.0,
        2.220446049250313e-16,
        0.0,
        0.0,
        0.0,
        0.0,
        1.0
      ],
      "name": "GLTF_SceneRootNode"
    },
    {
      "children": [
        4
      ],
      "name": "_0"
    },
    {
      "mesh": 0,
      "name": "Object_4"
    }
  ],
  "samplers": [
    {
      "magFilter": 9729,
      "minFilter": 9987,
      "wrapS": 10497,
      "wrapT": 10497
    }
  ],
  "scene": 0,
  "scenes": [
    {
      "name": "Sketchfab_Scene",
      "nodes": [
        0
      ]
    }
  ],
  "textures": [
    {
      "sampler": 0,
      "source": 0
    }
  ]
}
